<?xml version="1.0" encoding="UTF-8"?>
<!DOCTYPE svg PUBLIC "-//W3C//DTD SVG 1.1//EN" "http://www.w3.org/Graphics/SVG/1.1/DTD/svg11.dtd">
<svg xmlns="http://www.w3.org/2000/svg" xmlns:xlink="http://www.w3.org/1999/xlink" width="50px" height="50px" viewBox="0 0 50 50" version="1.1">
<style>
    path {
        fill: black;
    }
    @media (prefers-color-scheme: dark) {
        path {
            fill: white;
        }
    }
</style>
<g id="surface1">
<path style=" stroke:none;fill-rule:nonzero;fill-opacity:1;" d="M 23.011719 0.585938 C 19.386719 0.796875 16.113281 1.835938 13.65625 3.570312 C 12.734375 4.207031 11.1875 5.765625 10.539062 6.683594 C 9.242188 8.535156 8.375 10.785156 8.003906 13.25 C 7.84375 14.332031 7.820312 16.769531 7.964844 17.769531 C 8.179688 19.304688 8.75 21.097656 9.304688 22.023438 C 10.230469 23.574219 23.125 46.597656 23.777344 47.875 L 24.582031 49.460938 L 25.265625 48.140625 C 25.636719 47.410156 29.152344 41.230469 33.074219 34.402344 C 37 27.574219 40.316406 21.765625 40.453125 21.492188 C 40.941406 20.527344 41.367188 19 41.539062 17.542969 C 41.652344 16.601562 41.632812 14.488281 41.503906 13.464844 C 40.796875 8.027344 37.691406 3.894531 32.828125 1.945312 C 30.101562 0.851562 26.648438 0.371094 23.011719 0.585938 Z M 27.261719 2.316406 C 31.242188 2.742188 34.113281 3.972656 36.375 6.226562 C 38.433594 8.269531 39.648438 11.050781 39.953125 14.390625 C 40.097656 16.015625 39.90625 18.105469 39.488281 19.480469 C 39.132812 20.632812 38.585938 21.492188 38.207031 21.492188 C 38.03125 21.492188 37.871094 21.316406 37.644531 20.847656 C 36.992188 19.546875 36.617188 17.300781 36.429688 13.65625 C 36.332031 11.847656 36.324219 11.761719 36.148438 11.582031 C 35.761719 11.171875 35.03125 11.292969 34.820312 11.800781 C 34.644531 12.21875 34.84375 15.644531 35.167969 17.808594 C 35.5625 20.449219 36.15625 21.976562 37.121094 22.882812 C 37.339844 23.078125 37.515625 23.269531 37.515625 23.292969 C 37.515625 23.367188 24.652344 45.792969 24.605469 45.792969 C 24.582031 45.792969 21.726562 40.734375 18.25 34.554688 L 11.929688 23.3125 L 12.4375 22.804688 C 13.257812 21.976562 13.730469 20.890625 14.125 18.910156 C 14.46875 17.222656 14.734375 14.472656 14.734375 12.667969 C 14.734375 11.90625 14.71875 11.847656 14.535156 11.625 C 14.195312 11.214844 13.601562 11.246094 13.28125 11.695312 C 13.167969 11.855469 13.128906 12.152344 13.0625 13.554688 C 12.878906 17.328125 12.425781 19.90625 11.734375 21.082031 C 11.46875 21.535156 11.230469 21.589844 10.898438 21.261719 C 10.144531 20.535156 9.589844 18.492188 9.515625 16.136719 C 9.308594 10.0625 12.339844 5.316406 17.71875 3.3125 C 19.039062 2.816406 21.148438 2.371094 22.707031 2.253906 C 23.695312 2.179688 26.34375 2.21875 27.261719 2.316406 Z M 27.261719 2.316406 "/>
<path style=" stroke:none;fill-rule:nonzero;fill-opacity:1;" d="M 19.851562 7.738281 C 19.296875 8.074219 19.023438 8.742188 19.023438 9.71875 C 19.03125 10.464844 19.121094 10.84375 19.417969 11.292969 C 19.835938 11.9375 20.421875 12.015625 20.90625 11.476562 C 21.269531 11.066406 21.445312 10.511719 21.4375 9.71875 C 21.4375 8.710938 21.089844 7.929688 20.535156 7.699219 C 20.207031 7.5625 20.132812 7.5625 19.851562 7.738281 Z M 19.851562 7.738281 "/>
<path style=" stroke:none;fill-rule:nonzero;fill-opacity:1;" d="M 28.972656 7.664062 C 28.242188 7.980469 27.832031 9.394531 28.128906 10.554688 C 28.355469 11.445312 28.820312 11.90625 29.375 11.816406 C 29.707031 11.761719 29.953125 11.535156 30.210938 11.050781 C 30.398438 10.699219 30.414062 10.601562 30.414062 9.75 C 30.414062 8.886719 30.398438 8.816406 30.1875 8.390625 C 30.066406 8.148438 29.875 7.890625 29.769531 7.8125 C 29.542969 7.640625 29.175781 7.570312 28.972656 7.664062 Z M 28.972656 7.664062 "/>
<path style=" stroke:none;fill-rule:nonzero;fill-opacity:1;" d="M 24.050781 13.144531 C 23.496094 13.230469 22.746094 13.554688 22.546875 13.804688 C 22.464844 13.921875 22.402344 14.109375 22.402344 14.277344 C 22.402344 14.511719 22.457031 14.609375 22.660156 14.792969 C 22.804688 14.914062 23.085938 15.082031 23.285156 15.148438 C 23.488281 15.226562 23.6875 15.316406 23.730469 15.355469 C 23.777344 15.394531 23.578125 15.636719 23.222656 15.976562 C 22.546875 16.632812 21.660156 17.117188 20.898438 17.246094 C 19.175781 17.550781 17.625 16.144531 17.617188 14.292969 C 17.617188 13.804688 17.464844 13.488281 17.164062 13.328125 C 16.570312 13.023438 15.949219 13.449219 15.949219 14.164062 C 15.949219 15.164062 16.351562 16.394531 16.933594 17.171875 C 17.785156 18.300781 19.007812 18.910156 20.429688 18.910156 C 21.839844 18.910156 23.175781 18.316406 24.308594 17.207031 L 24.734375 16.789062 L 24.953125 17.019531 C 25.660156 17.769531 26.851562 18.492188 27.792969 18.75 C 28.433594 18.933594 29.367188 18.960938 30.011719 18.824219 C 31.203125 18.582031 32.441406 17.59375 32.980469 16.480469 C 33.332031 15.757812 33.492188 15.082031 33.492188 14.335938 C 33.492188 13.789062 33.476562 13.730469 33.269531 13.503906 C 33.082031 13.289062 32.996094 13.25 32.691406 13.25 C 32.398438 13.25 32.304688 13.289062 32.132812 13.488281 C 31.949219 13.683594 31.910156 13.804688 31.871094 14.332031 C 31.789062 15.417969 31.332031 16.296875 30.597656 16.796875 C 29.335938 17.671875 27.734375 17.367188 26.289062 15.984375 L 25.644531 15.371094 L 26.109375 15.195312 C 26.699219 14.984375 27.109375 14.609375 27.109375 14.292969 C 27.109375 13.769531 26.390625 13.28125 25.386719 13.136719 C 24.800781 13.054688 24.664062 13.054688 24.050781 13.144531 Z M 24.050781 13.144531 "/>
</g>
</svg>

